<?xml version="1.0" encoding="UTF-8" standalone="no"?>
<!--
    SPDX-FileCopyrightText: 2026 Punchi Dock Contributors
    SPDX-License-Identifier: GPL-3.0-or-later
-->
<svg xmlns="http://www.w3.org/2000/svg"
     width="256"
     height="256"
     viewBox="0 0 256 256">
    <defs>
        <linearGradient id="base-gradient" x1="20" y1="230" x2="225" y2="30" gradientUnits="userSpaceOnUse">
            <stop offset="0" stop-color="#00e7f2"/>
            <stop offset="0.3" stop-color="#2874ff"/>
            <stop offset="0.55" stop-color="#982cff"/>
            <stop offset="0.78" stop-color="#f22bb7"/>
            <stop offset="1" stop-color="#ff5d8f"/>
        </linearGradient>
        <radialGradient id="warm-corner" cx="0" cy="0" r="1"
                        gradientTransform="translate(220 220) rotate(-135) scale(104)"
                        gradientUnits="userSpaceOnUse">
            <stop offset="0" stop-color="#ffad32"/>
            <stop offset="0.62" stop-color="#ff4f73" stop-opacity="0.82"/>
            <stop offset="1" stop-color="#ff4f73" stop-opacity="0"/>
        </radialGradient>
        <radialGradient id="cool-corner" cx="0" cy="0" r="1"
                        gradientTransform="translate(25 195) rotate(-43) scale(118)"
                        gradientUnits="userSpaceOnUse">
            <stop offset="0" stop-color="#00e9ef"/>
            <stop offset="0.62" stop-color="#178cff" stop-opacity="0.72"/>
            <stop offset="1" stop-color="#178cff" stop-opacity="0"/>
        </radialGradient>
        <linearGradient id="center-gradient" x1="100" y1="118" x2="160" y2="91" gradientUnits="userSpaceOnUse">
            <stop offset="0" stop-color="#942cff"/>
            <stop offset="1" stop-color="#ff3ca0"/>
        </linearGradient>
    </defs>

    <path fill="url(#base-gradient)" fill-rule="evenodd"
          d="M69 17h118c29 0 52 23 52 52v118c0 29-23 52-52 52H69c-29 0-52-23-52-52V69c0-29 23-52 52-52zm30 38h50c30 0 47 19 47 51s-17 51-47 51h-38c-8 0-12 4-12 12v20c0 19-6 31-16.5 31S66 208 66 189V91c0-22 12-36 33-36z"/>
    <path fill="url(#cool-corner)" fill-rule="evenodd"
          d="M69 17h118c29 0 52 23 52 52v118c0 29-23 52-52 52H69c-29 0-52-23-52-52V69c0-29 23-52 52-52zm30 38h50c30 0 47 19 47 51s-17 51-47 51h-38c-8 0-12 4-12 12v20c0 19-6 31-16.5 31S66 208 66 189V91c0-22 12-36 33-36z"/>
    <path fill="url(#warm-corner)" fill-rule="evenodd"
          d="M69 17h118c29 0 52 23 52 52v118c0 29-23 52-52 52H69c-29 0-52-23-52-52V69c0-29 23-52 52-52zm30 38h50c30 0 47 19 47 51s-17 51-47 51h-38c-8 0-12 4-12 12v20c0 19-6 31-16.5 31S66 208 66 189V91c0-22 12-36 33-36z"/>

    <rect x="101" y="85" width="61" height="38" rx="15" fill="url(#center-gradient)"/>
    <rect x="18" y="18" width="220" height="220" rx="51"
          fill="none" stroke="#ffffff" stroke-opacity="0.2" stroke-width="2"/>
</svg>
